<?xml version='1.0' encoding='utf-8'?>
<mlt title="Anonymous Submission" version="0.9.3" root="/home/steve" LC_NUMERIC="en_US.UTF-8">
 <profile width="1920" display_aspect_den="9" colorspace="709" frame_rate_den="1001" description="HD 1080p 23.98 fps" height="1080" display_aspect_num="16" frame_rate_num="24000" progressive="1" sample_aspect_num="1" sample_aspect_den="1"/>
 <producer in="0" out="14999" id="black">
  <property name="mlt_type">producer</property>
  <property name="length">15000</property>
  <property name="eof">pause</property>
  <property name="resource">black</property>
  <property name="aspect_ratio">0</property>
  <property name="mlt_service">colour</property>
 </producer>
 <playlist id="black_track">
  <entry in="0" out="3941" producer="black"/>
 </playlist>
 <producer in="0" out="3671" id="12_4_audio">
  <property name="mlt_type">producer</property>
  <property name="length">3672</property>
  <property name="eof">pause</property>
  <property name="resource">/media/steve/Extra Drive 1/videos/DSA2015Winter/HEATHERS_04.MOV</property>
  <property name="meta.media.nb_streams">2</property>
  <property name="meta.media.0.stream.type">video</property>
  <property name="meta.media.0.stream.frame_rate">23.976</property>
  <property name="meta.media.0.stream.sample_aspect_ratio">0</property>
  <property name="meta.media.0.codec.width">1920</property>
  <property name="meta.media.0.codec.height">1080</property>
  <property name="meta.media.0.codec.frame_rate">23.976</property>
  <property name="meta.media.0.codec.pix_fmt">yuvj420p</property>
  <property name="meta.media.0.codec.sample_aspect_ratio">0</property>
  <property name="meta.media.0.codec.colorspace">601</property>
  <property name="meta.media.0.codec.color_trc">4</property>
  <property name="meta.media.0.codec.name">h264</property>
  <property name="meta.media.0.codec.long_name">H.264 / AVC / MPEG-4 AVC / MPEG-4 part 10</property>
  <property name="meta.media.0.codec.bit_rate">21413929</property>
  <property name="meta.attr.0.stream.creation_time.markup">2015-12-03 19:17:35</property>
  <property name="meta.attr.0.stream.language.markup">eng</property>
  <property name="meta.media.1.stream.type">audio</property>
  <property name="meta.media.1.codec.sample_fmt">s16</property>
  <property name="meta.media.1.codec.sample_rate">48000</property>
  <property name="meta.media.1.codec.channels">2</property>
  <property name="meta.media.1.codec.name">pcm_s16le</property>
  <property name="meta.media.1.codec.long_name">PCM signed 16-bit little-endian</property>
  <property name="meta.media.1.codec.bit_rate">1536000</property>
  <property name="meta.attr.1.stream.creation_time.markup">2015-12-03 19:17:35</property>
  <property name="meta.attr.1.stream.language.markup">eng</property>
  <property name="meta.attr.major_brand.markup">qt  </property>
  <property name="meta.attr.minor_version.markup">537331968</property>
  <property name="meta.attr.compatible_brands.markup">qt  niko</property>
  <property name="meta.attr.creation_time.markup">2015-12-03 19:17:35</property>
  <property name="seekable">1</property>
  <property name="meta.media.sample_aspect_num">1</property>
  <property name="meta.media.sample_aspect_den">1</property>
  <property name="aspect_ratio">1</property>
  <property name="audio_index">1</property>
  <property name="video_index">-1</property>
  <property name="mlt_service">avformat</property>
 </producer>
 <playlist id="playlist1">
  <blank length="238"/>
  <entry in="0" out="3671" producer="12_4_audio"/>
 </playlist>
 <producer in="0" out="3860" id="13_3_audio">
  <property name="mlt_type">producer</property>
  <property name="length">3861</property>
  <property name="eof">pause</property>
  <property name="resource">/media/steve/Extra Drive 1/videos/DSA2015Winter/STEVES_04.MOV</property>
  <property name="meta.media.nb_streams">2</property>
  <property name="meta.media.0.stream.type">video</property>
  <property name="meta.media.0.stream.frame_rate">23.976</property>
  <property name="meta.media.0.stream.sample_aspect_ratio">0</property>
  <property name="meta.media.0.codec.width">1920</property>
  <property name="meta.media.0.codec.height">1080</property>
  <property name="meta.media.0.codec.frame_rate">23.976</property>
  <property name="meta.media.0.codec.pix_fmt">yuvj420p</property>
  <property name="meta.media.0.codec.sample_aspect_ratio">1</property>
  <property name="meta.media.0.codec.colorspace">601</property>
  <property name="meta.media.0.codec.color_trc">4</property>
  <property name="meta.media.0.codec.name">h264</property>
  <property name="meta.media.0.codec.long_name">H.264 / AVC / MPEG-4 AVC / MPEG-4 part 10</property>
  <property name="meta.media.0.codec.bit_rate">18251928</property>
  <property name="meta.attr.0.stream.creation_time.markup">2015-12-03 09:31:32</property>
  <property name="meta.attr.0.stream.language.markup">eng</property>
  <property name="meta.media.1.stream.type">audio</property>
  <property name="meta.media.1.codec.sample_fmt">s16</property>
  <property name="meta.media.1.codec.sample_rate">48000</property>
  <property name="meta.media.1.codec.channels">2</property>
  <property name="meta.media.1.codec.name">pcm_s16le</property>
  <property name="meta.media.1.codec.long_name">PCM signed 16-bit little-endian</property>
  <property name="meta.media.1.codec.bit_rate">1536000</property>
  <property name="meta.attr.1.stream.creation_time.markup">2015-12-03 09:31:32</property>
  <property name="meta.attr.1.stream.language.markup">eng</property>
  <property name="meta.attr.major_brand.markup">qt  </property>
  <property name="meta.attr.minor_version.markup">537331968</property>
  <property name="meta.attr.compatible_brands.markup">qt  niko</property>
  <property name="meta.attr.creation_time.markup">2015-12-03 09:31:32</property>
  <property name="seekable">1</property>
  <property name="meta.media.sample_aspect_num">1</property>
  <property name="meta.media.sample_aspect_den">1</property>
  <property name="aspect_ratio">1</property>
  <property name="audio_index">1</property>
  <property name="video_index">-1</property>
  <property name="mlt_service">avformat</property>
 </producer>
 <playlist id="playlist2">
  <blank length="81"/>
  <entry in="0" out="3860" producer="13_3_audio"/>
 </playlist>
 <producer in="0" out="3671" id="12_4_video">
  <property name="mlt_type">producer</property>
  <property name="length">3672</property>
  <property name="eof">pause</property>
  <property name="resource">/media/steve/Extra Drive 1/videos/DSA2015Winter/HEATHERS_04.MOV</property>
  <property name="meta.media.nb_streams">2</property>
  <property name="meta.media.0.stream.type">video</property>
  <property name="meta.media.0.stream.frame_rate">23.976</property>
  <property name="meta.media.0.stream.sample_aspect_ratio">0</property>
  <property name="meta.media.0.codec.width">1920</property>
  <property name="meta.media.0.codec.height">1080</property>
  <property name="meta.media.0.codec.frame_rate">23.976</property>
  <property name="meta.media.0.codec.pix_fmt">yuvj420p</property>
  <property name="meta.media.0.codec.sample_aspect_ratio">0</property>
  <property name="meta.media.0.codec.colorspace">601</property>
  <property name="meta.media.0.codec.color_trc">4</property>
  <property name="meta.media.0.codec.name">h264</property>
  <property name="meta.media.0.codec.long_name">H.264 / AVC / MPEG-4 AVC / MPEG-4 part 10</property>
  <property name="meta.media.0.codec.bit_rate">21413929</property>
  <property name="meta.attr.0.stream.creation_time.markup">2015-12-03 19:17:35</property>
  <property name="meta.attr.0.stream.language.markup">eng</property>
  <property name="meta.media.1.stream.type">audio</property>
  <property name="meta.media.1.codec.sample_fmt">s16</property>
  <property name="meta.media.1.codec.sample_rate">48000</property>
  <property name="meta.media.1.codec.channels">2</property>
  <property name="meta.media.1.codec.name">pcm_s16le</property>
  <property name="meta.media.1.codec.long_name">PCM signed 16-bit little-endian</property>
  <property name="meta.media.1.codec.bit_rate">1536000</property>
  <property name="meta.attr.1.stream.creation_time.markup">2015-12-03 19:17:35</property>
  <property name="meta.attr.1.stream.language.markup">eng</property>
  <property name="meta.attr.major_brand.markup">qt  </property>
  <property name="meta.attr.minor_version.markup">537331968</property>
  <property name="meta.attr.compatible_brands.markup">qt  niko</property>
  <property name="meta.attr.creation_time.markup">2015-12-03 19:17:35</property>
  <property name="seekable">1</property>
  <property name="meta.media.sample_aspect_num">1</property>
  <property name="meta.media.sample_aspect_den">1</property>
  <property name="aspect_ratio">1</property>
  <property name="audio_index">-1</property>
  <property name="video_index">0</property>
  <property name="mlt_service">avformat</property>
  <property name="meta.media.frame_rate_num">24000</property>
  <property name="meta.media.frame_rate_den">1001</property>
  <property name="meta.media.colorspace">601</property>
  <property name="meta.media.color_trc">4</property>
  <property name="meta.media.width">1920</property>
  <property name="meta.media.height">1080</property>
  <property name="meta.media.top_field_first">0</property>
  <property name="meta.media.progressive">1</property>
 </producer>
 <playlist id="playlist3">
  <blank length="563"/>
  <entry in="325" out="716" producer="12_4_video">
   <filter in="325" out="716" id="filter0">
    <property name="track">0</property>
    <property name="background">colour:0x00000000</property>
    <property name="mlt_type">filter</property>
    <property name="mlt_service">affine</property>
    <property name="kdenlive_id">pan_zoom</property>
    <property name="tag">affine</property>
    <property name="kdenlive_ix">1</property>
    <property name="kdenlive_info"/>
    <property name="transition.distort">0</property>
    <property name="transition.geometry">-192/-108:2304x1296:100;391=0/-270:2880x1620:100</property>
   </filter>
  </entry>
  <blank length="238"/>
  <entry in="954" out="1222" producer="12_4_video">
   <filter in="954" out="1222" id="filter1">
    <property name="track">0</property>
    <property name="background">colour:0x00000000</property>
    <property name="mlt_type">filter</property>
    <property name="mlt_service">affine</property>
    <property name="kdenlive_id">pan_zoom</property>
    <property name="tag">affine</property>
    <property name="kdenlive_ix">1</property>
    <property name="kdenlive_info"/>
    <property name="transition.distort">0</property>
    <property name="transition.geometry">0/-270:2880x1620:100;268=-960/-270:2880x1620:100</property>
   </filter>
  </entry>
  <blank length="149"/>
  <entry in="1371" out="1833" producer="12_4_video">
   <filter in="1371" out="1833" id="filter2">
    <property name="track">0</property>
    <property name="background">colour:0x00000000</property>
    <property name="mlt_type">filter</property>
    <property name="mlt_service">affine</property>
    <property name="kdenlive_id">pan_zoom</property>
    <property name="tag">affine</property>
    <property name="kdenlive_ix">1</property>
    <property name="kdenlive_info"/>
    <property name="transition.distort">0</property>
    <property name="transition.geometry">-576/-324:3072x1728:100;462=0/-108:2304x1296:100</property>
   </filter>
  </entry>
  <blank length="278"/>
  <entry in="2111" out="2749" producer="12_4_video">
   <filter in="2111" out="2749" id="filter3">
    <property name="track">0</property>
    <property name="background">colour:0x00000000</property>
    <property name="mlt_type">filter</property>
    <property name="mlt_service">affine</property>
    <property name="kdenlive_id">pan_zoom</property>
    <property name="tag">affine</property>
    <property name="kdenlive_ix">1</property>
    <property name="kdenlive_info"/>
    <property name="transition.distort">0</property>
    <property name="transition.geometry">-480/-270:2880x1620:100;638=-96/-54:2112x1188:100</property>
   </filter>
  </entry>
  <blank length="222"/>
  <entry in="2971" out="3337" producer="12_4_video">
   <filter in="2971" out="3337" id="filter4">
    <property name="track">0</property>
    <property name="background">colour:0x00000000</property>
    <property name="mlt_type">filter</property>
    <property name="mlt_service">affine</property>
    <property name="kdenlive_id">pan_zoom</property>
    <property name="tag">affine</property>
    <property name="kdenlive_ix">1</property>
    <property name="kdenlive_info"/>
    <property name="transition.distort">0</property>
    <property name="transition.geometry">0/-270:2880x1620:100;366=-960/-270:2880x1620:100</property>
   </filter>
  </entry>
  <blank length="68"/>
  <entry in="3405" out="3666" producer="12_4_video">
   <filter in="3405" out="3666" id="filter5">
    <property name="track">0</property>
    <property name="background">colour:0x00000000</property>
    <property name="mlt_type">filter</property>
    <property name="mlt_service">affine</property>
    <property name="kdenlive_id">pan_zoom</property>
    <property name="tag">affine</property>
    <property name="kdenlive_ix">1</property>
    <property name="kdenlive_info"/>
    <property name="transition.distort">0</property>
    <property name="transition.geometry">-480/-270:2880x1620:100;261=-96/-54:2112x1188:100</property>
   </filter>
  </entry>
  <filter id="greyscale">
   <property name="track">0</property>
   <property name="mlt_type">filter</property>
   <property name="mlt_service">greyscale</property>
   <property name="kdenlive_id">greyscale</property>
   <property name="tag">greyscale</property>
   <property name="kdenlive_ix">1</property>
   <property name="kdenlive_info"/>
  </filter>
  <filter id="frei0r.hqdn3d">
   <property name="track">0</property>
   <property name="version">0.1</property>
   <property name="mlt_type">filter</property>
   <property name="mlt_service">frei0r.hqdn3d</property>
   <property name="kdenlive_id">frei0r.hqdn3d</property>
   <property name="tag">frei0r.hqdn3d</property>
   <property name="kdenlive_ix">2</property>
   <property name="kdenlive_info"/>
   <property name="Spatial">0=0.239</property>
   <property name="Temporal">0:60=0</property>
  </filter>
  <filter id="LetterBox300">
   <property name="track">0</property>
   <property name="version">0.1</property>
   <property name="mlt_type">filter</property>
   <property name="mlt_service">frei0r.letterb0xed</property>
   <property name="kdenlive_id">LetterBox300</property>
   <property name="tag">frei0r.letterb0xed</property>
   <property name="kdenlive_ix">3</property>
   <property name="kdenlive_info"/>
   <property name="Border Width">0.3</property>
   <property name="Transparency">0</property>
  </filter>
 </playlist>
 <producer in="0" out="3860" id="13_3_video">
  <property name="mlt_type">producer</property>
  <property name="length">3861</property>
  <property name="eof">pause</property>
  <property name="resource">/media/steve/Extra Drive 1/videos/DSA2015Winter/STEVES_04.MOV</property>
  <property name="meta.media.nb_streams">2</property>
  <property name="meta.media.0.stream.type">video</property>
  <property name="meta.media.0.stream.frame_rate">23.976</property>
  <property name="meta.media.0.stream.sample_aspect_ratio">0</property>
  <property name="meta.media.0.codec.width">1920</property>
  <property name="meta.media.0.codec.height">1080</property>
  <property name="meta.media.0.codec.frame_rate">23.976</property>
  <property name="meta.media.0.codec.pix_fmt">yuvj420p</property>
  <property name="meta.media.0.codec.sample_aspect_ratio">1</property>
  <property name="meta.media.0.codec.colorspace">601</property>
  <property name="meta.media.0.codec.color_trc">4</property>
  <property name="meta.media.0.codec.name">h264</property>
  <property name="meta.media.0.codec.long_name">H.264 / AVC / MPEG-4 AVC / MPEG-4 part 10</property>
  <property name="meta.media.0.codec.bit_rate">18251928</property>
  <property name="meta.attr.0.stream.creation_time.markup">2015-12-03 09:31:32</property>
  <property name="meta.attr.0.stream.language.markup">eng</property>
  <property name="meta.media.1.stream.type">audio</property>
  <property name="meta.media.1.codec.sample_fmt">s16</property>
  <property name="meta.media.1.codec.sample_rate">48000</property>
  <property name="meta.media.1.codec.channels">2</property>
  <property name="meta.media.1.codec.name">pcm_s16le</property>
  <property name="meta.media.1.codec.long_name">PCM signed 16-bit little-endian</property>
  <property name="meta.media.1.codec.bit_rate">1536000</property>
  <property name="meta.attr.1.stream.creation_time.markup">2015-12-03 09:31:32</property>
  <property name="meta.attr.1.stream.language.markup">eng</property>
  <property name="meta.attr.major_brand.markup">qt  </property>
  <property name="meta.attr.minor_version.markup">537331968</property>
  <property name="meta.attr.compatible_brands.markup">qt  niko</property>
  <property name="meta.attr.creation_time.markup">2015-12-03 09:31:32</property>
  <property name="seekable">1</property>
  <property name="meta.media.sample_aspect_num">1</property>
  <property name="meta.media.sample_aspect_den">1</property>
  <property name="aspect_ratio">1</property>
  <property name="audio_index">-1</property>
  <property name="video_index">0</property>
  <property name="mlt_service">avformat</property>
  <property name="meta.media.frame_rate_num">24000</property>
  <property name="meta.media.frame_rate_den">1001</property>
  <property name="meta.media.colorspace">601</property>
  <property name="meta.media.color_trc">4</property>
  <property name="meta.media.width">1920</property>
  <property name="meta.media.height">1080</property>
  <property name="meta.media.top_field_first">0</property>
  <property name="meta.media.progressive">1</property>
 </producer>
 <playlist id="playlist4">
  <blank length="81"/>
  <entry in="0" out="643" producer="13_3_video">
   <filter out="643" id="filter6">
    <property name="track">0</property>
    <property name="background">colour:0x00000000</property>
    <property name="mlt_type">filter</property>
    <property name="mlt_service">affine</property>
    <property name="kdenlive_id">pan_zoom</property>
    <property name="tag">affine</property>
    <property name="kdenlive_ix">1</property>
    <property name="kdenlive_info"/>
    <property name="transition.distort">0</property>
    <property name="transition.geometry">0/-270:2880x1620:100;643=-960/-270:2880x1620:100</property>
   </filter>
  </entry>
  <blank length="110"/>
  <entry in="753" out="1204" producer="13_3_video">
   <filter in="753" out="1204" id="filter7">
    <property name="track">0</property>
    <property name="background">colour:0x00000000</property>
    <property name="mlt_type">filter</property>
    <property name="mlt_service">affine</property>
    <property name="kdenlive_id">pan_zoom</property>
    <property name="tag">affine</property>
    <property name="kdenlive_ix">1</property>
    <property name="kdenlive_info"/>
    <property name="transition.distort">0</property>
    <property name="transition.geometry">-576/-324:3072x1728:100;451=0/-108:2304x1296:100</property>
   </filter>
  </entry>
  <blank length="82"/>
  <entry in="1286" out="1638" producer="13_3_video">
   <filter in="1286" out="1638" id="filter8">
    <property name="track">0</property>
    <property name="background">colour:0x00000000</property>
    <property name="mlt_type">filter</property>
    <property name="mlt_service">affine</property>
    <property name="kdenlive_id">pan_zoom</property>
    <property name="tag">affine</property>
    <property name="kdenlive_ix">1</property>
    <property name="kdenlive_info"/>
    <property name="transition.distort">0</property>
    <property name="transition.geometry">0/-270:2880x1620:100;352=-960/-270:2880x1620:100</property>
   </filter>
  </entry>
  <blank length="272"/>
  <entry in="1910" out="2378" producer="13_3_video">
   <filter in="1910" out="2378" id="filter9">
    <property name="track">0</property>
    <property name="background">colour:0x00000000</property>
    <property name="mlt_type">filter</property>
    <property name="mlt_service">affine</property>
    <property name="kdenlive_id">pan_zoom</property>
    <property name="tag">affine</property>
    <property name="kdenlive_ix">1</property>
    <property name="kdenlive_info"/>
    <property name="transition.distort">0</property>
    <property name="transition.geometry">-576/-324:3072x1728:100;468=0/-108:2304x1296:100</property>
   </filter>
  </entry>
  <blank length="426"/>
  <entry in="2804" out="3215" producer="13_3_video">
   <filter in="2804" out="3215" id="filter10">
    <property name="track">0</property>
    <property name="background">colour:0x00000000</property>
    <property name="mlt_type">filter</property>
    <property name="mlt_service">affine</property>
    <property name="kdenlive_id">pan_zoom</property>
    <property name="tag">affine</property>
    <property name="kdenlive_ix">1</property>
    <property name="kdenlive_info"/>
    <property name="transition.distort">0</property>
    <property name="transition.geometry">-480/-270:2880x1620:100;411=-96/-54:2112x1188:100</property>
   </filter>
  </entry>
  <blank length="193"/>
  <entry in="3408" out="3689" producer="13_3_video">
   <filter in="3408" out="3689" id="filter11">
    <property name="track">0</property>
    <property name="background">colour:0x00000000</property>
    <property name="mlt_type">filter</property>
    <property name="mlt_service">affine</property>
    <property name="kdenlive_id">pan_zoom</property>
    <property name="tag">affine</property>
    <property name="kdenlive_ix">1</property>
    <property name="kdenlive_info"/>
    <property name="transition.distort">0</property>
    <property name="transition.geometry">-480/-270:2880x1620:100;281=-96/-54:2112x1188:100</property>
   </filter>
  </entry>
  <filter id="filter12">
   <property name="track">0</property>
   <property name="mlt_type">filter</property>
   <property name="mlt_service">greyscale</property>
   <property name="kdenlive_id">greyscale</property>
   <property name="tag">greyscale</property>
   <property name="kdenlive_ix">1</property>
   <property name="kdenlive_info"/>
  </filter>
  <filter id="filter13">
   <property name="track">0</property>
   <property name="version">0.1</property>
   <property name="mlt_type">filter</property>
   <property name="mlt_service">frei0r.hqdn3d</property>
   <property name="kdenlive_id">frei0r.hqdn3d</property>
   <property name="tag">frei0r.hqdn3d</property>
   <property name="kdenlive_ix">2</property>
   <property name="kdenlive_info"/>
   <property name="Spatial">0=0.208</property>
   <property name="Temporal">0:60=0</property>
  </filter>
  <filter id="filter14">
   <property name="track">0</property>
   <property name="version">0.1</property>
   <property name="mlt_type">filter</property>
   <property name="mlt_service">frei0r.letterb0xed</property>
   <property name="kdenlive_id">LetterBox300</property>
   <property name="tag">frei0r.letterb0xed</property>
   <property name="kdenlive_ix">3</property>
   <property name="kdenlive_info"/>
   <property name="Border Width">0.3</property>
   <property name="Transparency">0</property>
  </filter>
 </playlist>
 <playlist id="playlist5"/>
 <tractor title="Anonymous Submission" global_feed="1" in="0" out="3941" id="maintractor">
  <property name="meta.volume">1</property>
  <track producer="black_track"/>
  <track hide="both" producer="playlist1"/>
  <track hide="video" producer="playlist2"/>
  <track producer="playlist3"/>
  <track producer="playlist4"/>
  <track producer="playlist5"/>
  <transition id="transition0">
   <property name="a_track">2</property>
   <property name="b_track">3</property>
   <property name="mlt_type">transition</property>
   <property name="mlt_service">mix</property>
   <property name="always_active">1</property>
   <property name="combine">1</property>
   <property name="internal_added">237</property>
  </transition>
  <transition id="transition1">
   <property name="a_track">2</property>
   <property name="b_track">4</property>
   <property name="mlt_type">transition</property>
   <property name="mlt_service">mix</property>
   <property name="always_active">1</property>
   <property name="combine">1</property>
   <property name="internal_added">237</property>
  </transition>
  <transition id="transition2">
   <property name="a_track">2</property>
   <property name="b_track">5</property>
   <property name="mlt_type">transition</property>
   <property name="mlt_service">mix</property>
   <property name="always_active">1</property>
   <property name="combine">1</property>
   <property name="internal_added">237</property>
  </transition>
  <transition in="563" out="724" id="transition3">
   <property name="a_track">3</property>
   <property name="b_track">4</property>
   <property name="factory">loader</property>
   <property name="mlt_type">transition</property>
   <property name="mlt_service">luma</property>
   <property name="automatic">1</property>
   <property name="kdenlive_id">dissolve</property>
   <property name="force_track">0</property>
   <property name="reverse">1</property>
  </transition>
  <transition in="835" out="954" id="transition4">
   <property name="a_track">3</property>
   <property name="b_track">4</property>
   <property name="factory">loader</property>
   <property name="mlt_type">transition</property>
   <property name="mlt_service">luma</property>
   <property name="automatic">1</property>
   <property name="kdenlive_id">dissolve</property>
   <property name="force_track">0</property>
   <property name="reverse">0</property>
  </transition>
  <transition in="1193" out="1286" id="transition5">
   <property name="a_track">3</property>
   <property name="b_track">4</property>
   <property name="factory">loader</property>
   <property name="mlt_type">transition</property>
   <property name="mlt_service">luma</property>
   <property name="automatic">1</property>
   <property name="kdenlive_id">dissolve</property>
   <property name="force_track">0</property>
   <property name="reverse">1</property>
  </transition>
  <transition in="1369" out="1461" id="transition6">
   <property name="a_track">3</property>
   <property name="b_track">4</property>
   <property name="factory">loader</property>
   <property name="mlt_type">transition</property>
   <property name="mlt_service">luma</property>
   <property name="automatic">1</property>
   <property name="kdenlive_id">dissolve</property>
   <property name="force_track">0</property>
   <property name="reverse">0</property>
  </transition>
  <transition in="1611" out="1721" id="transition7">
   <property name="a_track">3</property>
   <property name="b_track">4</property>
   <property name="factory">loader</property>
   <property name="mlt_type">transition</property>
   <property name="mlt_service">luma</property>
   <property name="automatic">1</property>
   <property name="kdenlive_id">dissolve</property>
   <property name="force_track">0</property>
   <property name="reverse">1</property>
  </transition>
  <transition in="1994" out="2073" id="transition8">
   <property name="a_track">3</property>
   <property name="b_track">4</property>
   <property name="factory">loader</property>
   <property name="mlt_type">transition</property>
   <property name="mlt_service">luma</property>
   <property name="automatic">1</property>
   <property name="kdenlive_id">dissolve</property>
   <property name="force_track">0</property>
   <property name="reverse">0</property>
  </transition>
  <transition in="2352" out="2462" id="transition9">
   <property name="a_track">3</property>
   <property name="b_track">4</property>
   <property name="factory">loader</property>
   <property name="mlt_type">transition</property>
   <property name="mlt_service">luma</property>
   <property name="automatic">1</property>
   <property name="kdenlive_id">dissolve</property>
   <property name="force_track">0</property>
   <property name="reverse">1</property>
  </transition>
  <transition in="2889" out="2990" id="transition10">
   <property name="a_track">3</property>
   <property name="b_track">4</property>
   <property name="factory">loader</property>
   <property name="mlt_type">transition</property>
   <property name="mlt_service">luma</property>
   <property name="automatic">1</property>
   <property name="kdenlive_id">dissolve</property>
   <property name="force_track">0</property>
   <property name="reverse">0</property>
  </transition>
  <transition in="3213" out="3300" id="transition11">
   <property name="a_track">3</property>
   <property name="b_track">4</property>
   <property name="factory">loader</property>
   <property name="mlt_type">transition</property>
   <property name="mlt_service">luma</property>
   <property name="automatic">1</property>
   <property name="kdenlive_id">dissolve</property>
   <property name="force_track">0</property>
   <property name="reverse">1</property>
  </transition>
  <transition in="3494" out="3579" id="transition12">
   <property name="a_track">3</property>
   <property name="b_track">4</property>
   <property name="factory">loader</property>
   <property name="mlt_type">transition</property>
   <property name="mlt_service">luma</property>
   <property name="automatic">1</property>
   <property name="kdenlive_id">dissolve</property>
   <property name="force_track">0</property>
   <property name="reverse">0</property>
  </transition>
  <transition in="3648" out="3775" id="transition13">
   <property name="a_track">3</property>
   <property name="b_track">4</property>
   <property name="factory">loader</property>
   <property name="mlt_type">transition</property>
   <property name="mlt_service">luma</property>
   <property name="automatic">1</property>
   <property name="kdenlive_id">dissolve</property>
   <property name="force_track">0</property>
   <property name="reverse">1</property>
  </transition>
 </tractor>
 <kdenlivedoc profile="atsc_1080p_2398" kdenliveversion="0.9.10" version="0.88" projectfolder="/home/steve/kdenlive">
  <customeffects>
   <effectgroup type="custom" id="DSAColors" name="DSAColors">
    <effect version="0.3" tag="frei0r.curves" kdenlive_info="0/-1/DSAColors" LC_NUMERIC="C" id="frei0r.curves">
     <name>Curves</name>
     <description>Color curves adjustment</description>
     <author>Maksim Golovkin</author>
     <parameter default="0" type="list" value="3" name="Channel" paramlist="0;1;2;3">
      <paramlistdisplay>Red,Green,Blue,Luma</paramlistdisplay>
      <name>Channel</name>
     </parameter>
     <parameter default="1" type="list" value="1" name="Luma formula" paramlist="0;1">
      <paramlistdisplay>Rec. 601,Rec. 709</paramlistdisplay>
      <name>Luma formula</name>
     </parameter>
     <!-- No actual parameter: Represents the curve widget -->
     <parameter default="0" inpoints="Point %i input value" depends="Channel" number="Curve point number" type="curve" value="0" min="1" max="5" outpoints="Point %i output value"/>
     <parameter default="0.2" type="fixed" value="0.5" min="0.2" name="Curve point number" max="0.5">
      <name>Number of curve points</name>
     </parameter>
     <parameter default="0" type="fixed" value="0" min="0" name="Point 1 input value" max="1">
      <name>Point 1 input value</name>
     </parameter>
     <parameter default="0" type="fixed" value="0" min="0" name="Point 1 output value" max="1">
      <name>Point 1 output value</name>
     </parameter>
     <parameter default="1" type="fixed" value="0.230045" min="0" name="Point 2 input value" max="1">
      <name>Point 2 input value</name>
     </parameter>
     <parameter default="1" type="fixed" value="0.176542" min="0" name="Point 2 output value" max="1">
      <name>Point 2 output value</name>
     </parameter>
     <parameter default="0" type="fixed" value="0.52786" min="0" name="Point 3 input value" max="1">
      <name>Point 3 input value</name>
     </parameter>
     <parameter default="0" type="fixed" value="0.536913" min="0" name="Point 3 output value" max="1">
      <name>Point 3 output value</name>
     </parameter>
     <parameter default="0" type="fixed" value="0.780198" min="0" name="Point 4 input value" max="1">
      <name>Point 4 input value</name>
     </parameter>
     <parameter default="0" type="fixed" value="0.808638" min="0" name="Point 4 output value" max="1">
      <name>Point 4 output value</name>
     </parameter>
     <parameter default="0" type="fixed" value="1" min="0" name="Point 5 input value" max="1">
      <name>Point 5 input value</name>
     </parameter>
     <parameter default="0" type="fixed" value="1" min="0" name="Point 5 output value" max="1">
      <name>Point 5 output value</name>
     </parameter>
     <parameter default="0" type="bool" value="0" name="Show curves">
      <name>Show graph in picture</name>
     </parameter>
     <parameter default="0.3" type="list" value="0.3" name="Graph position" paramlist="0;0.1;0.2;0.3">
      <paramlistdisplay>Top Left,Top Right,Bottom Left,Bottom Right</paramlistdisplay>
      <name>Graph position</name>
     </parameter>
     <version>0.3</version>
     <version>0.3</version>
    </effect>
   </effectgroup>
  </customeffects>
  <documentproperties proxyimageminsize="2000" zonein="0" enableproxy="0" zoneout="100" generateproxy="0" zoom="9" verticalzoom="1" proxyextension="ts" position="3941" documentid="1449203943173" generateimageproxy="0" proxyminsize="1000" proxyparams="-f mpegts -acodec libmp3lame -ac 2 -ab 128k -ar 48000 -vcodec mpeg2video -g 5 -deinterlace -s 640x360 -vb 700k"/>
  <documentmetadata/>
  <documentnotes>&lt;!DOCTYPE HTML PUBLIC "-//W3C//DTD HTML 4.0//EN" "http://www.w3.org/TR/REC-html40/strict.dtd">
&lt;html>&lt;head>&lt;meta name="qrichtext" content="1" />&lt;style type="text/css">
p, li { white-space: pre-wrap; }
&lt;/style>&lt;/head>&lt;body style=" font-family:'Sans Serif'; font-size:8pt; font-weight:400; font-style:normal;">
&lt;p style="-qt-paragraph-type:empty; margin-top:0px; margin-bottom:0px; margin-left:0px; margin-right:0px; -qt-block-indent:0; text-indent:0px;">&lt;br />&lt;/p>&lt;/body>&lt;/html></documentnotes>
  <profileinfo width="1920" display_aspect_den="9" frame_rate_den="1001" description="HD 1080p 23.98 fps" height="1080" frame_rate_num="24000" display_aspect_num="16" progressive="1" sample_aspect_num="1" sample_aspect_den="1"/>
  <tracksinfo>
   <trackinfo blind="1" mute="1" locked="0" trackname="Audio 2" type="audio"/>
   <trackinfo blind="1" mute="0" locked="0" trackname="Audio 1" type="audio"/>
   <trackinfo blind="0" mute="0" locked="0" trackname="Video 3"/>
   <trackinfo blind="0" mute="0" locked="0" trackname="Video 2"/>
   <trackinfo blind="0" mute="0" locked="0" trackname="Video 1"/>
  </tracksinfo>
  <kdenlive_producer audio_max="63" id="12" pix_fmt="yuvj420p" default_video="0" fps="23.976" analysisdata="" name="HEATHERS_04.MOV" videocodecid="h264" colorspace="601" videocodec="H.264 / AVC / MPEG-4 AVC / MPEG-4 part 10" resource="/media/steve/Extra Drive 1/videos/DSA2015Winter/HEATHERS_04.MOV" default_audio="1" audiocodec="PCM signed 16-bit little-endian" duration="3672" file_hash="96ddc6d79caa22ac758153bed0b88e4f" aspect_ratio="1" channels="2" frequency="48000" video_max="0" progressive="1" type="3" frame_size="1920x1080" file_size="439784826">
   <metaproperty tool="" name="meta.attr.0.stream.creation_time">2015-12-03 19:17:35</metaproperty>
   <metaproperty tool="" name="meta.attr.0.stream.language">eng</metaproperty>
   <metaproperty tool="" name="meta.attr.1.stream.creation_time">2015-12-03 19:17:35</metaproperty>
   <metaproperty tool="" name="meta.attr.1.stream.language">eng</metaproperty>
   <metaproperty tool="" name="meta.attr.compatible_brands">qt  niko</metaproperty>
   <metaproperty tool="" name="meta.attr.creation_time">2015-12-03 19:17:35</metaproperty>
   <metaproperty tool="" name="meta.attr.major_brand">qt  </metaproperty>
   <metaproperty tool="" name="meta.attr.minor_version">537331968</metaproperty>
  </kdenlive_producer>
  <kdenlive_producer audio_max="63" id="13" pix_fmt="yuvj420p" default_video="0" fps="23.976" analysisdata="" name="STEVES_04.MOV" videocodecid="h264" colorspace="601" videocodec="H.264 / AVC / MPEG-4 AVC / MPEG-4 part 10" resource="/media/steve/Extra Drive 1/videos/DSA2015Winter/STEVES_04.MOV" default_audio="1" audiocodec="PCM signed 16-bit little-endian" duration="3861" file_hash="18d858fe5689d6bd0a7106f47a879c6e" aspect_ratio="1" channels="2" frequency="48000" video_max="0" progressive="1" type="3" frame_size="1920x1080" file_size="398603174">
   <metaproperty tool="" name="meta.attr.0.stream.creation_time">2015-12-03 09:31:32</metaproperty>
   <metaproperty tool="" name="meta.attr.0.stream.language">eng</metaproperty>
   <metaproperty tool="" name="meta.attr.1.stream.creation_time">2015-12-03 09:31:32</metaproperty>
   <metaproperty tool="" name="meta.attr.1.stream.language">eng</metaproperty>
   <metaproperty tool="" name="meta.attr.compatible_brands">qt  niko</metaproperty>
   <metaproperty tool="" name="meta.attr.creation_time">2015-12-03 09:31:32</metaproperty>
   <metaproperty tool="" name="meta.attr.major_brand">qt  </metaproperty>
   <metaproperty tool="" name="meta.attr.minor_version">537331968</metaproperty>
  </kdenlive_producer>
  <markers/>
  <groups/>
 </kdenlivedoc>
</mlt>
